<svg id="Capa_1" enable-background="new 0 0 512 512" height="512" viewBox="0 0 512 512" width="512" xmlns="http://www.w3.org/2000/svg"><g><g><path clip-rule="evenodd" d="m196.377 233.034v-153.095c3.373 18.708-85.205-43.567-93.311-49.605l.113 202.7 46.95 25.143z" fill="#ff6d75" fill-rule="evenodd"/></g><g><path clip-rule="evenodd" d="m196.377 79.939c.482-14.088-8.192-32.711-23.951-48.471-22.507-22.506-50.936-30.613-63.465-18.056-4.167 4.167-6.066 10.063-5.896 16.922.283 13.833 8.9 31.492 23.951 46.543 22.506 22.535 50.907 30.613 63.464 18.056 3.771-3.769 5.67-8.956 5.897-14.994z" fill="#fe8d94" fill-rule="evenodd"/></g><g><path clip-rule="evenodd" d="m71.914 303.615h155.585v154.427h-155.585z" fill="#7e707d" fill-rule="evenodd"/></g><g><path clip-rule="evenodd" d="m227.499 499.086v-51.05h-155.585v51.05c0 2.976 1.899 5.414 4.195 5.414h147.223c2.296 0 4.167-2.438 4.167-5.414z" fill="#fde588" fill-rule="evenodd"/></g><g><path clip-rule="evenodd" d="m219.251 283.319v-45.183c0-2.806-2.296-5.102-5.074-5.102h-17.801-93.198-17.913c-2.806 0-5.074 2.296-5.074 5.102v45.183z" fill="#eff6ff" fill-rule="evenodd"/></g><g><path clip-rule="evenodd" d="m460.21 242.501c0-24.264-19.841-44.106-44.105-44.106h-67.347c-24.263 0-44.133 19.842-44.133 44.106v61.51h155.585z" fill="#7e707d" fill-rule="evenodd"/></g><g><path clip-rule="evenodd" d="m460.21 499.483v-170.783h-155.584v170.782c0 2.75 2.268 5.017 5.017 5.017h145.579c2.749.001 4.988-2.267 4.988-5.016z" fill="#7e707d" fill-rule="evenodd"/></g><g><path clip-rule="evenodd" d="m304.626 294.005h155.585v44.701h-155.585z" fill="#fde588" fill-rule="evenodd"/></g><g><path clip-rule="evenodd" d="m186.853 238.136v35.177h8.277 24.121v-35.177c0-2.806-2.296-5.102-5.074-5.102h-17.801-14.598c2.779 0 5.075 2.296 5.075 5.102z" fill="#d9eeff" fill-rule="evenodd"/></g><g><path clip-rule="evenodd" d="m195.129 313.592h32.37v134.443h-32.37z" fill="#6a5c6b" fill-rule="evenodd"/></g><g><path clip-rule="evenodd" d="m195.129 448.036v51.05c0 2.976-1.899 5.414-4.195 5.414h32.398c2.296 0 4.167-2.438 4.167-5.414v-51.05z" fill="#fdd76f" fill-rule="evenodd"/></g><g><path clip-rule="evenodd" d="m415.454 242.501v51.504h44.757v-51.504c0-24.264-19.841-44.106-44.105-44.106h-44.785c24.263.001 44.133 19.843 44.133 44.106z" fill="#6a5c6b" fill-rule="evenodd"/></g><g><path clip-rule="evenodd" d="m415.454 294.005h44.757v44.701h-44.757z" fill="#fdd76f" fill-rule="evenodd"/></g><g><path clip-rule="evenodd" d="m415.454 338.706v160.776c0 2.75-2.268 5.017-5.017 5.017h44.785c2.749 0 4.989-2.268 4.989-5.017v-160.776z" fill="#6a5c6b" fill-rule="evenodd"/></g><g><path clip-rule="evenodd" d="m162.249 98.988v134.046h19.53 14.598v-151.337c-.057.17-.113.312-.17.454-.567 5.102-2.438 9.496-5.726 12.784-6.321 6.32-16.639 7.397-28.232 4.053z" fill="#ff6d75" fill-rule="evenodd"/></g><g><path clip-rule="evenodd" d="m247.652 293.467c0-11.083-9.07-20.154-20.153-20.154h-8.248-139.06-8.277c-11.083 0-20.125 9.071-20.125 20.154s9.042 20.125 20.125 20.125h155.585c11.083 0 20.153-9.042 20.153-20.125z" fill="#fde588" fill-rule="evenodd"/></g><g><path clip-rule="evenodd" d="m207.885 277.905c4.478 3.713 7.37 9.326 7.37 15.562 0 11.083-9.07 20.125-20.125 20.125h32.37c11.083 0 20.153-9.042 20.153-20.125s-9.07-20.154-20.153-20.154h-8.248-24.121c4.817 0 9.267 1.729 12.754 4.592z" fill="#fdd76f" fill-rule="evenodd"/></g><g><path d="m227.499 265.813h-.748v-27.678c0-6.948-5.641-12.602-12.574-12.602h-10.3v-145.594c0-.029-.004-.057-.004-.086.116-4.635-.558-9.654-2.068-14.962-3.754-13.201-12.305-26.954-24.076-38.726-16.386-16.386-36.051-26.165-52.614-26.165-.008 0-.017 0-.023 0-8.729.005-16.138 2.807-21.429 8.103-5.31 5.299-8.118 12.723-8.12 21.47 0 .417.01.838.023 1.26l.109 194.702h-10.41c-6.933 0-12.573 5.653-12.573 12.602v27.678h-.777c-15.232 0-27.625 12.405-27.625 27.653 0 12.633 8.527 23.304 20.125 26.582v179.037c0 7.121 5.246 12.914 11.695 12.914h147.224c6.433 0 11.666-5.793 11.666-12.914v-179.036c11.614-3.275 20.153-13.948 20.153-26.584-.001-15.248-12.406-27.654-27.654-27.654zm-113.24-247.091c.004-.005.008-.009.012-.013 2.453-2.458 6.097-3.706 10.829-3.709h.015c12.294 0 28.78 8.545 42.007 21.772 20.896 20.896 26.287 44.628 18.056 52.858-4.003 4.006-11.529 4.814-20.645 2.221-10.774-3.064-22.213-10.265-32.216-20.28-13.229-13.214-21.776-29.698-21.773-41.996 0-4.743 1.25-8.395 3.715-10.853zm74.618 86.478v120.334h-78.202l-.087-156.319c3.251 4.463 6.974 8.819 11.123 12.962 11.773 11.789 25.523 20.348 38.718 24.102 4.917 1.399 9.591 2.091 13.939 2.091 5.395 0 10.286-1.067 14.509-3.17zm-101.186 135.334h15.487.004 108.568v25.279h-124.059zm-8.277 256.466v-41.465h140.585v41.465zm148.085-190.908h-63.917c-4.143 0-7.5 3.357-7.5 7.5s3.357 7.5 7.5 7.5h56.417v119.443h-140.585v-119.443h53.441c4.143 0 7.5-3.357 7.5-7.5s-3.357-7.5-7.5-7.5h-60.941c-6.962 0-12.625-5.663-12.625-12.625 0-6.978 5.663-12.653 12.625-12.653h8.277 139.06 8.248c6.977 0 12.653 5.676 12.653 12.653 0 6.962-5.676 12.625-12.653 12.625z"/><path d="m416.105 190.896h-67.347c-28.471 0-51.633 23.15-51.633 51.605v51.505 44.7 160.776c0 6.902 5.615 12.518 12.517 12.518h145.579c6.887 0 12.489-5.615 12.489-12.518v-69.163c0-4.143-3.357-7.5-7.5-7.5s-7.5 3.357-7.5 7.5v66.681h-140.584v-150.794h140.585v49.475c0 4.143 3.357 7.5 7.5 7.5s7.5-3.357 7.5-7.5v-56.975-44.7-51.505c0-28.455-23.15-51.605-51.606-51.605zm-67.346 15h67.347c20.185 0 36.605 16.421 36.605 36.605v44.005h-140.585v-44.005c0-20.185 16.434-36.605 36.633-36.605zm-36.633 125.31v-29.7h140.585v29.7z"/></g></g></svg>